<svg width="1240" height="620" viewBox="0 0 1240 620" fill="none" xmlns="http://www.w3.org/2000/svg" role="img" aria-label="CTIN architecture and flow">
  <defs>
    <linearGradient id="bg" x1="0" y1="0" x2="0" y2="620" gradientUnits="userSpaceOnUse">
      <stop offset="0" stop-color="#0b0b0d"/>
      <stop offset="1" stop-color="#050505"/>
    </linearGradient>
    <radialGradient id="glow" cx="0.5" cy="1.1" r="0.8">
      <stop offset="0" stop-color="#ff6b1a" stop-opacity="0.14"/>
      <stop offset="1" stop-color="#050505" stop-opacity="0"/>
    </radialGradient>
    <marker id="arrow" markerWidth="10" markerHeight="8" refX="7.5" refY="3" orient="auto" markerUnits="strokeWidth">
      <path d="M0,0 L8,3 L0,6 Z" fill="#ffffff"/>
    </marker>
    <marker id="arrowEmber" markerWidth="10" markerHeight="8" refX="7.5" refY="3" orient="auto" markerUnits="strokeWidth">
      <path d="M0,0 L8,3 L0,6 Z" fill="#ffd7a8"/>
    </marker>
  </defs>

  <rect width="1240" height="620" fill="url(#bg)"/>
  <rect width="1240" height="620" fill="url(#glow)"/>

  <text x="30" y="52" font-family="'Segoe UI', Arial, sans-serif" font-size="26" font-weight="800" fill="#f5f5f4">CTIN Architecture and Flow</text>
  <text x="31" y="78" font-family="'Consolas', monospace" font-size="13" letter-spacing="1" fill="#8a8a92">Treasury Signer to Browser to Frontend to Wallet to confidential contracts to execution</text>

  <g stroke="#ffffff" stroke-width="2" fill="none">
    <line x1="230" y1="170" x2="266" y2="170" marker-end="url(#arrow)"/>
    <line x1="470" y1="170" x2="506" y2="170" marker-end="url(#arrow)"/>
    <line x1="710" y1="170" x2="746" y2="170" marker-end="url(#arrow)"/>
    <line x1="950" y1="170" x2="986" y2="170" marker-end="url(#arrow)"/>
    <line x1="1090" y1="200" x2="1090" y2="376" marker-end="url(#arrow)"/>
    <line x1="990" y1="410" x2="954" y2="410" marker-end="url(#arrow)"/>
    <line x1="750" y1="410" x2="714" y2="410" marker-end="url(#arrow)"/>
    <line x1="510" y1="410" x2="474" y2="410" marker-end="url(#arrow)"/>
    <line x1="270" y1="410" x2="234" y2="410" marker-end="url(#arrow)"/>
    <line x1="850" y1="440" x2="850" y2="486" marker-end="url(#arrow)"/>
  </g>

  <g stroke="#ffd7a8" stroke-width="1.6" stroke-dasharray="5 4" fill="none">
    <line x1="610" y1="200" x2="843" y2="376" marker-end="url(#arrowEmber)"/>
  </g>

  <g font-family="'Consolas', monospace" font-size="11" fill="#8a8a92">
    <text x="655" y="292" transform="rotate(37 655 292)">submit encrypted intent</text>
    <text x="1100" y="300">authorize</text>
    <text x="958" y="400">net</text>
    <text x="620" y="400">totals</text>
    <text x="480" y="400">execute</text>
    <text x="862" y="470">selective decrypt</text>
  </g>

  <g font-family="'Consolas', monospace" font-size="14" fill="#f5f5f4">
    <g>
      <rect x="30" y="140" width="200" height="60" rx="4" fill="#0b0b0d" stroke="#ff6b1a" stroke-width="1.5"/>
      <text x="130" y="175" text-anchor="middle">Treasury Signer</text>
    </g>
    <g>
      <rect x="270" y="140" width="200" height="60" rx="4" fill="#0b0b0d" stroke="#ff6b1a" stroke-width="1.5"/>
      <text x="370" y="175" text-anchor="middle">Browser</text>
    </g>
    <g>
      <rect x="510" y="140" width="200" height="60" rx="4" fill="#0b0b0d" stroke="#ff6b1a" stroke-width="1.5"/>
      <g transform="translate(526,152) scale(1.1)">
        <path d="M8.5 14.5A2.5 2.5 0 0 0 11 12c0-1.38-.5-2-1-3-1.072-2.143-.224-4.054 2-6 .5 2.5 2 4.9 4 6.5 2 1.6 3 3.5 3 5.5a7 7 0 1 1-14 0c0-1.153.433-2.294 1-3a2.5 2.5 0 0 0 2.5 2.5z" fill="#ff6b1a"/>
      </g>
      <text x="622" y="175" text-anchor="middle">CTIN Frontend</text>
    </g>
    <g>
      <rect x="750" y="140" width="200" height="60" rx="4" fill="#0b0b0d" stroke="#ff6b1a" stroke-width="1.5"/>
      <text x="850" y="175" text-anchor="middle">Wallet</text>
    </g>
    <g>
      <rect x="990" y="140" width="200" height="60" rx="4" fill="#0b0b0d" stroke="#ffffff" stroke-width="1.5"/>
      <text x="1090" y="175" text-anchor="middle">Safe</text>
    </g>

    <g>
      <rect x="990" y="380" width="200" height="60" rx="4" fill="#0b0b0d" stroke="#ffffff" stroke-width="1.5"/>
      <text x="1090" y="415" text-anchor="middle">Safe Module</text>
    </g>
    <g>
      <rect x="750" y="380" width="200" height="60" rx="4" fill="#0b0b0d" stroke="#ff6b1a" stroke-width="2.5"/>
      <text x="850" y="406" text-anchor="middle">Intent Network</text>
      <text x="850" y="426" text-anchor="middle" font-size="12" fill="#ffd7a8">Nox confidential</text>
    </g>
    <g>
      <rect x="510" y="380" width="200" height="60" rx="4" fill="#0b0b0d" stroke="#ff6b1a" stroke-width="1.5"/>
      <text x="610" y="415" text-anchor="middle">TEE Runner</text>
    </g>
    <g>
      <rect x="270" y="380" width="200" height="60" rx="4" fill="#0b0b0d" stroke="#ffffff" stroke-width="1.5"/>
      <text x="370" y="415" text-anchor="middle">Uniswap Adapter</text>
    </g>
    <g>
      <rect x="30" y="380" width="200" height="60" rx="4" fill="#0b0b0d" stroke="#ffffff" stroke-width="1.5"/>
      <text x="130" y="415" text-anchor="middle">Uniswap v3</text>
    </g>
    <g>
      <rect x="750" y="490" width="200" height="60" rx="4" fill="#0b0b0d" stroke="#ffffff" stroke-width="1.5"/>
      <text x="850" y="525" text-anchor="middle">Disclosure Registry</text>
    </g>
  </g>

  <g font-family="'Consolas', monospace" font-size="12">
    <rect x="30" y="580" width="16" height="16" rx="2" fill="#0b0b0d" stroke="#ff6b1a" stroke-width="1.5"/>
    <text x="54" y="592" fill="#8a8a92">Off-chain</text>
    <rect x="170" y="580" width="16" height="16" rx="2" fill="#0b0b0d" stroke="#ffffff" stroke-width="1.5"/>
    <text x="194" y="592" fill="#8a8a92">Ethereum Sepolia (on-chain)</text>
  </g>
</svg>
